<svg xmlns="http://www.w3.org/2000/svg" xmlns:xlink="http://www.w3.org/1999/xlink" width="2000" zoomAndPan="magnify" viewBox="0 0 1500 1499.999933" height="2000" preserveAspectRatio="xMidYMid meet" version="1.0"><defs><clipPath id="10b642f22d"><path d="M 115.578125 133.308594 L 1385 133.308594 L 1385 1366.691406 L 115.578125 1366.691406 Z M 115.578125 133.308594 " clip-rule="nonzero"/></clipPath><clipPath id="17e5f24c77"><path d="M 750 133.308594 C 399.617188 133.308594 115.578125 409.410156 115.578125 750 C 115.578125 1090.589844 399.617188 1366.691406 750 1366.691406 C 1100.382812 1366.691406 1384.421875 1090.589844 1384.421875 750 C 1384.421875 409.410156 1100.382812 133.308594 750 133.308594 Z M 750 133.308594 " clip-rule="nonzero"/></clipPath><clipPath id="8e0d341930"><path d="M 0.578125 0.308594 L 1268 0.308594 L 1268 1233.691406 L 0.578125 1233.691406 Z M 0.578125 0.308594 " clip-rule="nonzero"/></clipPath><clipPath id="63e1fc21c4"><path d="M 635 0.308594 C 284.617188 0.308594 0.578125 276.410156 0.578125 617 C 0.578125 957.589844 284.617188 1233.691406 635 1233.691406 C 985.382812 1233.691406 1269.421875 957.589844 1269.421875 617 C 1269.421875 276.410156 985.382812 0.308594 635 0.308594 Z M 635 0.308594 " clip-rule="nonzero"/></clipPath><clipPath id="baa06d0bc8"><rect x="0" width="1270" y="0" height="1234"/></clipPath><clipPath id="ed0a84dfa8"><path d="M 349.261719 339.46875 L 1170.511719 339.46875 L 1170.511719 1160.71875 L 349.261719 1160.71875 Z M 349.261719 339.46875 " clip-rule="nonzero"/></clipPath><clipPath id="089c69bd48"><path d="M 268 311.585938 L 1232 311.585938 L 1232 1188.335938 L 268 1188.335938 Z M 268 311.585938 " clip-rule="nonzero"/></clipPath><clipPath id="5e56329fbd"><path d="M 668.566406 663.570312 L 841.421875 663.570312 L 841.421875 836.429688 L 668.566406 836.429688 Z M 668.566406 663.570312 " clip-rule="nonzero"/></clipPath><clipPath id="538861d518"><path d="M 754.996094 663.570312 C 707.261719 663.570312 668.566406 702.265625 668.566406 750 C 668.566406 797.734375 707.261719 836.429688 754.996094 836.429688 C 802.726562 836.429688 841.421875 797.734375 841.421875 750 C 841.421875 702.265625 802.726562 663.570312 754.996094 663.570312 Z M 754.996094 663.570312 " clip-rule="nonzero"/></clipPath><clipPath id="ff0c82be93"><path d="M 0.566406 0.570312 L 173.421875 0.570312 L 173.421875 173.429688 L 0.566406 173.429688 Z M 0.566406 0.570312 " clip-rule="nonzero"/></clipPath><clipPath id="54e3a70753"><path d="M 86.996094 0.570312 C 39.261719 0.570312 0.566406 39.265625 0.566406 87 C 0.566406 134.734375 39.261719 173.429688 86.996094 173.429688 C 134.726562 173.429688 173.421875 134.734375 173.421875 87 C 173.421875 39.265625 134.726562 0.570312 86.996094 0.570312 Z M 86.996094 0.570312 " clip-rule="nonzero"/></clipPath><clipPath id="f844fc50c2"><rect x="0" width="174" y="0" height="174"/></clipPath><clipPath id="50cd400073"><path d="M 668 635 L 834 635 L 834 866 L 668 866 Z M 668 635 " clip-rule="nonzero"/></clipPath><clipPath id="4c8574fdb0"><path d="M 668.808594 853.292969 L 814.738281 635.671875 L 833.589844 648.3125 L 687.660156 865.933594 Z M 668.808594 853.292969 " clip-rule="nonzero"/></clipPath><clipPath id="dbaa6c4312"><path d="M 0.640625 0.519531 L 165.761719 0.519531 L 165.761719 231 L 0.640625 231 Z M 0.640625 0.519531 " clip-rule="nonzero"/></clipPath><clipPath id="ad7db24afe"><path d="M 0.808594 218.292969 L 146.738281 0.671875 L 165.589844 13.3125 L 19.660156 230.933594 Z M 0.808594 218.292969 " clip-rule="nonzero"/></clipPath><clipPath id="ce77faef00"><rect x="0" width="166" y="0" height="231"/></clipPath></defs><g clip-path="url(#10b642f22d)"><g clip-path="url(#17e5f24c77)"><g transform="matrix(1, 0, 0, 1, 115, 133)"><g clip-path="url(#baa06d0bc8)"><g clip-path="url(#8e0d341930)"><g clip-path="url(#63e1fc21c4)"><path fill="#000000" d="M 0.578125 0.308594 L 1267.683594 0.308594 L 1267.683594 1233.691406 L 0.578125 1233.691406 Z M 0.578125 0.308594 " fill-opacity="1" fill-rule="nonzero"/></g></g></g></g></g></g><g clip-path="url(#ed0a84dfa8)"><path fill="#ffffff" d="M 1138.074219 590.21875 C 1117.480469 541.304688 1087.871094 497.539062 1050.285156 459.695312 C 1012.699219 422.105469 968.675781 392.5 919.761719 371.90625 C 869.042969 350.539062 815.238281 339.46875 759.886719 339.46875 C 704.539062 339.46875 650.730469 350.28125 600.015625 371.90625 C 551.101562 392.5 507.335938 422.105469 469.488281 459.695312 C 432.160156 497.539062 402.554688 541.304688 381.699219 590.21875 C 360.332031 640.9375 349.261719 694.742188 349.261719 750.09375 C 349.261719 805.441406 360.332031 859.25 381.699219 909.964844 C 402.296875 958.878906 431.902344 1002.644531 469.488281 1040.492188 C 507.078125 1078.078125 551.101562 1107.683594 600.015625 1128.28125 C 650.730469 1149.648438 704.539062 1160.71875 759.886719 1160.71875 C 815.238281 1160.71875 869.042969 1149.90625 919.761719 1128.28125 C 968.675781 1107.683594 1012.441406 1078.078125 1050.285156 1040.492188 C 1087.875 1002.902344 1117.480469 958.878906 1138.074219 909.964844 C 1159.441406 859.25 1170.511719 805.441406 1170.511719 750.09375 C 1170.511719 694.742188 1159.699219 640.9375 1138.074219 590.21875 Z M 1125.976562 904.816406 C 1105.894531 952.1875 1077.316406 994.664062 1041.019531 1030.964844 C 1004.71875 1067.265625 962.238281 1096.097656 914.871094 1115.921875 C 865.699219 1136.773438 813.695312 1147.332031 760.144531 1147.332031 C 706.597656 1147.332031 654.59375 1136.773438 605.421875 1115.921875 C 558.050781 1095.839844 515.574219 1067.265625 479.273438 1030.964844 C 442.972656 994.664062 414.140625 952.1875 394.316406 904.816406 C 373.460938 855.644531 362.90625 803.640625 362.90625 750.09375 C 362.90625 696.542969 373.460938 644.539062 394.316406 595.367188 C 414.398438 548 442.972656 505.519531 479.273438 469.21875 C 515.574219 432.921875 558.050781 404.085938 605.421875 384.261719 C 654.59375 363.410156 706.597656 352.855469 760.144531 352.855469 C 813.695312 352.855469 865.699219 363.410156 914.871094 384.261719 C 962.238281 404.34375 1004.71875 432.921875 1041.019531 469.21875 C 1077.316406 505.519531 1106.152344 548 1125.976562 595.367188 C 1146.828125 644.539062 1157.382812 696.542969 1157.382812 750.09375 C 1157.382812 803.640625 1146.828125 855.644531 1125.976562 904.816406 Z M 993.648438 516.332031 C 963.269531 485.953125 928 462.269531 888.609375 445.535156 C 847.675781 428.285156 804.425781 419.53125 759.886719 419.53125 C 715.351562 419.53125 672.097656 428.285156 631.164062 445.535156 C 591.777344 462.269531 556.507812 485.953125 526.128906 516.332031 C 495.75 546.710938 472.0625 581.980469 455.332031 621.371094 C 438.082031 662.304688 429.328125 705.554688 429.328125 750.09375 C 429.328125 794.628906 438.082031 837.882812 455.332031 878.816406 C 472.0625 918.203125 495.75 953.472656 526.128906 983.851562 C 556.507812 1014.230469 591.777344 1037.917969 631.164062 1054.648438 C 672.097656 1071.898438 715.351562 1080.652344 759.886719 1080.652344 C 804.425781 1080.652344 847.675781 1071.898438 888.609375 1054.648438 C 928 1037.917969 963.269531 1014.230469 993.648438 983.851562 C 1024.027344 953.472656 1047.710938 918.203125 1064.445312 878.816406 C 1081.695312 837.882812 1090.449219 794.628906 1090.449219 750.09375 C 1090.449219 705.554688 1081.695312 662.304688 1064.445312 621.371094 C 1047.710938 581.980469 1024.027344 546.710938 993.648438 516.332031 Z M 1052.34375 873.667969 C 1036.382812 911.511719 1013.472656 945.492188 984.378906 974.585938 C 955.289062 1003.675781 921.304688 1026.589844 883.460938 1042.550781 C 844.328125 1059.027344 802.625 1067.523438 759.886719 1067.523438 C 717.152344 1067.523438 675.445312 1059.027344 636.3125 1042.550781 C 598.46875 1026.589844 564.488281 1003.675781 535.394531 974.585938 C 506.304688 945.492188 483.390625 911.511719 467.429688 873.667969 C 450.953125 834.535156 442.457031 792.828125 442.457031 750.09375 C 442.457031 707.355469 450.953125 665.652344 467.429688 626.519531 C 483.390625 588.675781 506.304688 554.691406 535.394531 525.601562 C 564.488281 496.507812 598.46875 473.597656 636.3125 457.636719 C 675.445312 441.160156 717.152344 432.664062 759.886719 432.664062 C 802.625 432.664062 844.328125 441.160156 883.460938 457.636719 C 921.304688 473.597656 955.289062 496.507812 984.378906 525.601562 C 1013.472656 554.691406 1036.382812 588.675781 1052.34375 626.519531 C 1068.820312 665.652344 1077.316406 707.355469 1077.316406 750.09375 C 1077.316406 792.828125 1068.820312 834.535156 1052.34375 873.667969 Z M 937.011719 572.96875 C 914.097656 550.058594 887.324219 532.035156 857.460938 519.421875 C 826.566406 506.292969 793.613281 499.597656 759.886719 499.597656 C 726.164062 499.597656 693.210938 506.292969 662.316406 519.421875 C 632.453125 532.035156 605.679688 550.058594 582.765625 572.96875 C 559.851562 595.882812 541.832031 622.65625 529.21875 652.519531 C 516.085938 683.414062 509.394531 716.367188 509.394531 750.09375 C 509.394531 783.816406 516.085938 816.769531 529.21875 847.664062 C 541.832031 877.527344 559.851562 904.300781 582.765625 927.214844 C 605.679688 950.128906 632.453125 968.148438 662.316406 980.761719 C 693.210938 993.894531 726.164062 1000.585938 759.886719 1000.585938 C 793.613281 1000.585938 826.566406 993.894531 857.460938 980.761719 C 887.324219 968.148438 914.097656 950.128906 937.011719 927.214844 C 959.921875 904.300781 977.945312 877.527344 990.558594 847.664062 C 1003.6875 816.769531 1010.382812 783.816406 1010.382812 750.09375 C 1010.382812 716.367188 1003.6875 683.414062 990.558594 652.519531 C 977.945312 622.65625 959.921875 595.882812 937.011719 572.96875 Z M 978.457031 842.515625 C 966.617188 870.835938 949.367188 896.0625 927.742188 917.945312 C 905.859375 939.828125 880.628906 956.820312 852.3125 968.664062 C 822.960938 981.019531 791.8125 987.457031 759.886719 987.457031 C 727.964844 987.457031 696.8125 981.277344 667.464844 968.664062 C 639.144531 956.820312 613.917969 939.570312 592.035156 917.945312 C 570.152344 896.0625 553.160156 870.835938 541.316406 842.515625 C 528.960938 813.167969 522.523438 782.015625 522.523438 750.09375 C 522.523438 718.167969 528.703125 687.019531 541.316406 657.667969 C 553.160156 629.351562 570.410156 604.121094 592.035156 582.238281 C 613.917969 560.355469 639.144531 543.363281 667.464844 531.523438 C 696.8125 519.164062 727.964844 512.726562 759.886719 512.726562 C 791.8125 512.726562 822.960938 518.90625 852.3125 531.523438 C 880.628906 543.363281 905.859375 560.613281 927.742188 582.238281 C 949.625 604.121094 966.617188 629.351562 978.457031 657.667969 C 990.816406 687.019531 997.253906 718.167969 997.253906 750.09375 C 997.253906 782.015625 991.074219 813.167969 978.457031 842.515625 Z M 759.886719 579.664062 C 665.921875 579.664062 589.460938 656.125 589.460938 750.09375 C 589.460938 844.058594 665.921875 920.519531 759.886719 920.519531 C 853.855469 920.519531 930.316406 844.058594 930.316406 750.09375 C 930.316406 656.125 853.855469 579.664062 759.886719 579.664062 Z M 759.886719 907.390625 C 673.128906 907.390625 602.589844 836.851562 602.589844 750.09375 C 602.589844 663.332031 673.128906 592.792969 759.886719 592.792969 C 846.648438 592.792969 917.1875 663.332031 917.1875 750.09375 C 917.1875 836.851562 846.648438 907.390625 759.886719 907.390625 Z M 759.886719 907.390625 " fill-opacity="1" fill-rule="nonzero"/></g><g clip-path="url(#089c69bd48)"><path fill="#ffffff" d="M 1127.003906 918.070312 L 1036.515625 918.070312 L 990.597656 835.042969 L 1036.125 752.960938 L 1218.648438 752.960938 Z M 1073.433594 1004.546875 L 891.109375 1004.546875 L 799.65625 839.4375 L 884.980469 839.4375 L 932.429688 925.148438 L 932.8125 925.722656 L 933.199219 926.105469 L 933.769531 926.488281 L 934.15625 926.875 L 934.917969 927.257812 L 1030.960938 927.257812 Z M 981.988281 1179.027344 L 799.65625 1179.027344 L 891.109375 1014.113281 L 1073.433594 1014.113281 Z M 809.605469 1011.4375 L 809.984375 1010.667969 L 809.984375 1010.285156 C 810.097656 1009.914062 810.15625 1009.53125 810.179688 1009.144531 C 810.15625 1008.753906 810.097656 1008.367188 809.984375 1007.992188 L 809.984375 1007.609375 L 809.605469 1006.839844 L 755.460938 909.269531 L 791.429688 844.414062 L 882.6875 1009.144531 L 791.429688 1173.863281 L 755.460938 1109.011719 Z M 705.910156 1179.027344 L 523.386719 1179.027344 L 614.839844 1014.113281 L 691.941406 1014.113281 L 744.554688 1109.199219 Z M 469.054688 927.636719 L 561.082031 927.636719 L 606.613281 1009.328125 L 515.351562 1174.058594 L 424.09375 1009.328125 Z M 378.179688 918.070312 L 469.628906 752.960938 L 652.148438 752.960938 L 609.675781 829.871094 L 513.632812 829.871094 L 512.863281 830.257812 L 512.484375 830.640625 L 511.90625 831.019531 L 511.527344 831.402344 L 511.144531 831.976562 L 463.695312 917.691406 L 378.363281 917.691406 Z M 370.144531 583.457031 L 461.402344 748.179688 L 370.144531 912.90625 L 279.074219 748.179688 Z M 511.144531 667.824219 L 511.527344 668.398438 L 511.90625 668.78125 L 512.484375 669.160156 L 512.863281 669.738281 L 513.632812 670.117188 L 611.78125 670.117188 L 652.339844 743.207031 L 469.816406 743.207031 L 378.363281 578.476562 L 461.597656 578.476562 Z M 424.09375 490.851562 L 515.351562 326.128906 L 606.613281 490.851562 L 563.5625 568.71875 L 467.140625 568.71875 Z M 705.910156 320.957031 L 751.632812 403.421875 L 705.910156 486.070312 L 614.839844 486.070312 L 523.386719 321.152344 L 705.910156 321.152344 Z M 805.398438 326.128906 L 896.65625 490.851562 L 805.398438 655.582031 L 762.539062 578.097656 L 809.605469 493.148438 L 809.984375 492.382812 L 809.984375 492.003906 C 810.097656 491.628906 810.15625 491.242188 810.179688 490.851562 C 810.15625 490.464844 810.097656 490.082031 809.984375 489.707031 L 809.984375 489.320312 L 809.605469 488.558594 L 762.539062 403.613281 Z M 1087.402344 486.070312 L 905.070312 486.070312 L 813.625 321.152344 L 996.140625 321.152344 Z M 936.640625 568.914062 L 934.917969 568.914062 L 934.15625 569.292969 L 933.769531 569.675781 L 933.199219 570.0625 L 932.8125 570.445312 L 932.429688 571.019531 L 882.882812 660.550781 L 813.625 660.550781 L 905.070312 495.636719 L 1087.59375 495.636719 L 1047.035156 568.71875 L 936.640625 568.71875 Z M 985.042969 844.792969 L 1025.601562 918.070312 L 944.679688 918.070312 Z M 944.484375 578.285156 L 1041.484375 578.285156 L 995.949219 660.746094 L 990.207031 660.746094 Z M 936.453125 583.457031 L 979.304688 660.746094 L 893.785156 660.746094 Z M 845.195312 748.179688 L 888.242188 670.3125 L 984.46875 670.3125 L 1027.710938 748.179688 L 982.554688 829.871094 L 890.535156 829.871094 Z M 716.816406 486.070312 L 756.992188 413.367188 L 797.167969 486.070312 Z M 797.363281 495.636719 L 757.1875 568.335938 L 717.007812 495.636719 L 797.550781 495.636719 Z M 570.453125 575.988281 L 614.839844 495.636719 L 705.910156 495.636719 L 751.632812 578.097656 L 705.910156 660.550781 L 617.328125 660.550781 Z M 564.910156 585.9375 L 606.425781 660.941406 L 523.386719 660.941406 Z M 472.5 578.476562 L 558.019531 578.476562 L 515.167969 655.769531 Z M 523.386719 839.4375 L 604.316406 839.4375 L 563.757812 912.527344 Z M 515.351562 844.609375 L 556.105469 918.070312 L 474.601562 918.070312 Z M 691.941406 1004.546875 L 614.839844 1004.546875 L 569.304688 922.472656 L 615.222656 839.4375 L 705.714844 839.4375 L 744.363281 909.269531 Z M 797.363281 1014.113281 L 750.101562 1099.25 L 702.847656 1014.113281 Z M 702.847656 1004.546875 L 750.101562 919.222656 L 797.363281 1004.546875 Z M 791.625 829.871094 L 789.898438 829.871094 L 789.136719 830.257812 L 788.753906 830.640625 L 788.179688 831.019531 L 787.796875 831.402344 L 787.410156 831.976562 L 750.101562 899.515625 L 712.988281 832.359375 C 712.144531 830.820312 710.53125 829.871094 708.78125 829.871094 L 620.773438 829.871094 L 664.777344 750.472656 L 665.160156 749.710938 L 665.160156 749.328125 C 665.269531 748.953125 665.332031 748.566406 665.351562 748.179688 C 665.332031 747.789062 665.269531 747.40625 665.160156 747.035156 L 665.160156 746.644531 L 664.777344 745.882812 L 622.875 670.3125 L 708.96875 670.3125 C 710.722656 670.320312 712.339844 669.363281 713.183594 667.824219 L 757.375 588.042969 L 801.191406 667.824219 L 801.570312 668.398438 L 801.953125 668.78125 L 802.527344 669.160156 L 802.910156 669.550781 L 803.671875 669.929688 L 877.328125 669.929688 L 835.433594 745.503906 C 834.648438 746.929688 834.648438 748.664062 835.433594 750.089844 L 879.4375 829.488281 L 791.429688 829.488281 Z M 895.894531 839.4375 L 977.390625 839.4375 L 936.640625 912.90625 Z M 1127.003906 578.476562 L 1218.453125 743.589844 L 1036.125 743.589844 L 995.566406 670.507812 L 998.816406 670.507812 C 1000.574219 670.507812 1002.1875 669.558594 1003.03125 668.019531 L 1052.582031 578.476562 L 1127.195312 578.476562 Z M 1231.273438 749.328125 C 1231.382812 748.953125 1231.449219 748.566406 1231.464844 748.179688 C 1231.449219 747.789062 1231.382812 747.40625 1231.273438 747.035156 L 1231.273438 746.644531 L 1230.890625 745.882812 L 1134.085938 571.207031 C 1133.242188 569.667969 1131.628906 568.71875 1129.871094 568.71875 L 1057.941406 568.71875 L 1099.835938 493.148438 L 1100.21875 492.382812 L 1100.21875 492.003906 C 1100.328125 491.628906 1100.398438 491.242188 1100.410156 490.851562 C 1100.398438 490.464844 1100.328125 490.082031 1100.21875 489.707031 L 1100.21875 489.320312 L 1099.835938 488.558594 L 1003.03125 314.074219 C 1002.1875 312.535156 1000.574219 311.578125 998.816406 311.585938 L 803.671875 311.585938 L 802.910156 311.96875 L 802.527344 312.347656 L 801.953125 312.738281 L 801.570312 313.117188 L 801.191406 313.695312 L 757.1875 393.660156 L 712.988281 314.074219 C 712.144531 312.535156 710.53125 311.578125 708.78125 311.585938 L 513.632812 311.585938 L 512.863281 311.96875 L 512.484375 312.347656 L 511.90625 312.738281 L 511.527344 313.117188 L 511.144531 313.695312 L 414.335938 488.558594 C 413.558594 489.984375 413.558594 491.71875 414.335938 493.148438 L 456.238281 568.71875 L 368.613281 568.71875 L 367.84375 569.105469 L 367.460938 569.488281 L 366.886719 569.867188 L 366.503906 570.25 L 366.125 570.824219 L 269.320312 745.882812 C 268.535156 747.3125 268.535156 749.042969 269.320312 750.472656 L 366.125 925.148438 L 366.503906 925.722656 L 366.886719 926.105469 L 367.460938 926.488281 L 367.84375 926.875 L 368.613281 927.257812 L 458.339844 927.257812 L 414.335938 1006.65625 C 413.558594 1008.082031 413.558594 1009.816406 414.335938 1011.242188 L 511.144531 1185.917969 L 511.527344 1186.496094 L 511.90625 1186.875 L 512.484375 1187.257812 L 512.863281 1187.640625 L 513.632812 1188.027344 L 708.78125 1188.027344 C 710.53125 1188.027344 712.144531 1187.078125 712.988281 1185.539062 L 750.101562 1119.152344 L 787.222656 1186.300781 L 787.601562 1186.875 L 787.984375 1187.257812 L 788.558594 1187.640625 L 788.941406 1188.027344 L 789.710938 1188.410156 L 984.855469 1188.410156 C 986.605469 1188.414062 988.21875 1187.460938 989.066406 1185.917969 L 1085.867188 1011.242188 L 1086.257812 1010.480469 L 1086.257812 1010.285156 C 1086.363281 1009.914062 1086.429688 1009.53125 1086.445312 1009.144531 C 1086.429688 1008.753906 1086.363281 1008.367188 1086.257812 1007.992188 L 1086.257812 1007.609375 L 1085.867188 1006.839844 L 1041.863281 927.441406 L 1129.871094 927.441406 C 1131.628906 927.449219 1133.242188 926.496094 1134.085938 924.960938 L 1230.890625 750.285156 L 1231.273438 749.515625 L 1231.273438 749.132812 L 1231.273438 749.328125 " fill-opacity="1" fill-rule="nonzero"/></g><g clip-path="url(#5e56329fbd)"><g clip-path="url(#538861d518)"><g transform="matrix(1, 0, 0, 1, 668, 663)"><g clip-path="url(#f844fc50c2)"><g clip-path="url(#ff0c82be93)"><g clip-path="url(#54e3a70753)"><path fill="#ffffff" d="M 0.566406 0.570312 L 173.421875 0.570312 L 173.421875 173.429688 L 0.566406 173.429688 Z M 0.566406 0.570312 " fill-opacity="1" fill-rule="nonzero"/></g></g></g></g></g></g><g clip-path="url(#50cd400073)"><g clip-path="url(#4c8574fdb0)"><g transform="matrix(1, 0, 0, 1, 668, 635)"><g clip-path="url(#ce77faef00)"><g clip-path="url(#dbaa6c4312)"><g clip-path="url(#ad7db24afe)"><path fill="#cb312b" d="M -68.074219 172.101562 L 77.757812 -45.371094 L 231.976562 58.042969 L 86.144531 275.519531 Z M -68.074219 172.101562 " fill-opacity="1" fill-rule="nonzero"/></g></g></g></g></g></g></svg>